<?xml version="1.0" standalone="no"?>
<!DOCTYPE svg PUBLIC "-//W3C//DTD SVG 20010904//EN"
 "http://www.w3.org/TR/2001/REC-SVG-20010904/DTD/svg10.dtd">
<svg version="1.0" xmlns="http://www.w3.org/2000/svg"
 width="512.000000pt" height="512.000000pt" viewBox="0 0 512.000000 512.000000"
 preserveAspectRatio="xMidYMid meet">
<metadata>
Created by potrace 1.14, written by Peter Selinger 2001-2017
</metadata>
<g transform="translate(0.000000,512.000000) scale(0.100000,-0.100000)"
fill="#000000" stroke="none">
<path d="M1230 3346 l0 -676 -85 0 -85 0 0 -115 0 -115 85 0 85 0 0 -605 0
-605 140 0 140 0 0 605 0 605 349 0 349 0 453 -605 454 -605 168 0 169 0 -29
38 c-15 21 -226 303 -468 626 -242 323 -438 590 -436 594 2 4 42 17 90 30 111
29 269 107 348 171 126 103 217 250 249 401 24 115 15 340 -18 442 -89 271
-256 398 -613 465 -64 12 -205 16 -712 20 l-633 5 0 -676z m1321 407 c248 -69
370 -209 385 -443 16 -230 -103 -443 -300 -540 -169 -84 -296 -100 -768 -100
l-358 0 0 556 0 555 483 -3 c455 -4 486 -5 558 -25z"/>
<path d="M3670 3820 l0 -200 155 0 155 0 0 200 0 200 -155 0 -155 0 0 -200z"/>
<path d="M3680 2230 l0 -1000 134 0 134 0 6 253 c3 138 8 588 11 1000 l5 747
-145 0 -145 0 0 -1000z"/>
<path d="M1250 1085 c0 -8 9 -15 20 -15 11 0 20 7 20 15 0 8 -9 15 -20 15 -11
0 -20 -7 -20 -15z"/>
<path d="M1727 1093 c-4 -3 -7 -17 -7 -30 0 -14 -6 -23 -15 -23 -19 0 -19 -17
-1 -27 8 -5 16 -27 18 -53 3 -40 6 -45 34 -53 22 -7 40 -5 60 5 38 18 28 34
-18 30 -33 -3 -38 0 -44 22 -8 34 2 46 36 46 16 0 32 5 35 10 6 10 -1 14 -47
24 -21 5 -28 12 -28 31 0 24 -10 32 -23 18z"/>
<path d="M2007 1093 c-4 -3 -7 -17 -7 -30 0 -14 -6 -23 -15 -23 -19 0 -19 -17
-1 -27 8 -5 16 -27 18 -53 3 -40 6 -45 34 -53 22 -7 40 -5 60 5 38 18 28 34
-18 30 -33 -3 -38 0 -44 22 -8 34 2 46 36 46 16 0 32 5 35 10 6 10 -1 14 -47
24 -21 5 -28 12 -28 31 0 24 -10 32 -23 18z"/>
<path d="M2450 1085 c0 -8 9 -15 20 -15 11 0 20 7 20 15 0 8 -9 15 -20 15 -11
0 -20 -7 -20 -15z"/>
<path d="M3597 1093 c-4 -3 -7 -17 -7 -30 0 -14 -6 -23 -15 -23 -19 0 -19 -17
-1 -27 8 -5 16 -27 18 -53 3 -40 6 -45 34 -53 22 -7 40 -5 60 5 38 18 28 34
-18 30 -33 -3 -38 0 -44 22 -8 34 2 46 36 46 16 0 32 5 35 10 6 10 -1 14 -47
24 -21 5 -28 12 -28 31 0 24 -10 32 -23 18z"/>
<path d="M3780 1085 c0 -8 9 -15 20 -15 11 0 20 7 20 15 0 8 -9 15 -20 15 -11
0 -20 -7 -20 -15z"/>
<path d="M1530 1075 c0 -8 5 -15 10 -15 6 0 10 -28 10 -65 0 -37 -4 -65 -10
-65 -5 0 -10 -7 -10 -15 0 -10 10 -15 29 -15 33 0 49 16 32 33 -17 17 -13 55
7 66 34 18 59 -38 31 -66 -16 -16 -2 -33 26 -33 26 0 41 15 25 25 -5 3 -10 23
-10 44 0 44 -24 71 -63 71 -22 0 -27 5 -27 25 0 20 -5 25 -25 25 -16 0 -25 -6
-25 -15z"/>
<path d="M2778 1066 c-6 -14 -17 -26 -25 -26 -18 0 -17 -26 2 -34 24 -9 20
-67 -5 -73 -40 -11 -13 -28 48 -31 48 -2 62 0 62 11 0 8 -14 17 -31 21 -27 5
-30 9 -27 38 3 29 7 33 36 36 42 4 37 26 -6 30 -43 4 -31 22 14 22 51 0 38 24
-14 28 -37 3 -43 0 -54 -22z"/>
<path d="M1044 1028 c-4 -6 1 -15 10 -20 24 -13 21 -65 -5 -79 -34 -18 -8 -30
55 -27 61 3 79 20 31 28 -21 4 -31 12 -33 27 -4 28 33 55 66 46 20 -5 23 -2
20 13 -3 16 -13 19 -70 21 -39 1 -70 -3 -74 -9z"/>
<path d="M1225 1030 c-8 -14 3 -30 21 -30 11 0 14 -9 12 -32 -2 -24 -9 -34
-26 -38 -48 -11 -25 -25 46 -28 58 -2 72 0 72 12 0 9 -11 16 -27 18 -26 3 -28
7 -31 56 -3 50 -4 52 -32 52 -16 0 -32 -4 -35 -10z"/>
<path d="M1380 1020 c-44 -44 -10 -120 54 -120 24 0 27 -3 16 -10 -8 -5 -25
-10 -37 -10 -14 0 -23 -6 -23 -15 0 -22 63 -20 83 3 11 12 17 36 17 71 0 35 5
58 16 68 14 15 14 17 -2 26 -11 7 -23 6 -35 -1 -12 -8 -20 -8 -24 -2 -10 17
-44 11 -65 -10z m80 -50 c0 -25 -30 -41 -53 -29 -21 12 -22 33 -1 53 19 20 54
5 54 -24z"/>
<path d="M2172 1020 c-14 -14 -22 -33 -22 -55 0 -28 6 -37 30 -50 38 -20 52
-19 84 6 17 13 26 30 26 49 0 19 -9 36 -26 49 -34 27 -64 27 -92 1z m83 -51
c0 -20 -6 -25 -32 -27 -25 -3 -33 1 -38 19 -5 16 -2 26 10 35 25 18 60 3 60
-27z"/>
<path d="M2425 1030 c-8 -14 3 -30 21 -30 11 0 14 -9 12 -32 -2 -24 -9 -34
-26 -38 -54 -12 -17 -25 78 -27 100 -2 122 5 100 32 -20 24 -4 65 25 65 21 0
25 -5 25 -28 0 -15 -6 -34 -12 -40 -10 -10 -10 -15 2 -22 33 -21 76 -2 51 23
-6 6 -11 24 -11 40 0 15 -5 37 -11 48 -9 18 -17 20 -62 14 -63 -9 -71 -13 -57
-30 6 -8 10 -26 8 -42 -3 -25 -7 -28 -38 -28 l-35 0 -3 53 c-3 50 -4 52 -32
52 -16 0 -32 -4 -35 -10z"/>
<path d="M2912 1020 c-14 -14 -22 -33 -22 -55 0 -28 6 -37 30 -50 38 -20 52
-19 84 6 17 13 26 30 26 49 0 19 -9 36 -26 49 -34 27 -64 27 -92 1z m83 -51
c0 -20 -6 -25 -32 -27 -25 -3 -33 1 -38 19 -5 16 -2 26 10 35 25 18 60 3 60
-27z"/>
<path d="M3044 1028 c-4 -6 1 -15 10 -20 24 -13 21 -65 -5 -79 -34 -18 -8 -30
55 -27 61 3 79 20 31 28 -21 4 -31 12 -33 27 -4 28 33 55 66 46 20 -5 23 -2
20 13 -3 16 -13 19 -70 21 -39 1 -70 -3 -74 -9z"/>
<path d="M3214 1029 c-3 -6 -1 -16 5 -22 6 -6 11 -23 11 -37 0 -14 -5 -31 -11
-37 -17 -17 -1 -33 32 -33 31 0 36 10 18 39 -13 20 -4 75 11 66 6 -3 10 -29
10 -56 0 -47 2 -50 23 -47 14 2 20 9 18 18 -9 28 -6 80 4 82 6 2 11 -21 13
-49 3 -44 6 -53 22 -53 22 0 35 16 20 25 -5 3 -10 22 -10 41 0 62 -11 71 -89
72 -40 1 -73 -3 -77 -9z"/>
<path d="M3424 1026 c-18 -14 -18 -15 -1 -21 9 -4 26 -5 36 -2 10 2 25 1 32
-4 10 -6 5 -9 -16 -9 -34 0 -75 -24 -75 -44 0 -7 9 -21 19 -30 16 -14 30 -16
75 -11 53 7 68 16 46 30 -5 3 -10 21 -10 40 0 55 -60 84 -106 51z m66 -76 c0
-5 -12 -10 -26 -10 -14 0 -23 4 -19 10 3 6 15 10 26 10 10 0 19 -4 19 -10z"/>
<path d="M3755 1030 c-8 -14 3 -30 21 -30 11 0 14 -9 12 -32 -2 -24 -9 -34
-26 -38 -48 -11 -25 -25 46 -28 58 -2 72 0 72 12 0 9 -11 16 -27 18 -26 3 -28
7 -31 56 -3 50 -4 52 -32 52 -16 0 -32 -4 -35 -10z"/>
<path d="M3912 1020 c-14 -14 -22 -33 -22 -55 0 -28 6 -37 30 -50 38 -20 52
-19 84 6 17 13 26 30 26 49 0 19 -9 36 -26 49 -34 27 -64 27 -92 1z m83 -51
c0 -20 -6 -25 -32 -27 -25 -3 -33 1 -38 19 -5 16 -2 26 10 35 25 18 60 3 60
-27z"/>
<path d="M4080 1033 c-46 -7 -54 -13 -42 -25 15 -15 15 -61 1 -75 -16 -16 -2
-33 26 -33 29 0 41 16 25 35 -20 24 -4 65 25 65 21 0 25 -5 25 -28 0 -15 -6
-34 -12 -40 -10 -10 -10 -15 2 -22 33 -21 76 -2 51 23 -6 6 -11 24 -11 40 0
60 -18 72 -90 60z"/>
</g>
</svg>
